<svg viewBox="0 0 920 540" xmlns="http://www.w3.org/2000/svg" font-family="'Segoe UI', Arial, sans-serif">
  <defs>
    <linearGradient id="hdr5" x1="0%" y1="0%" x2="100%" y2="0%">
      <stop offset="0%" style="stop-color:#f43f6e"/><stop offset="100%" style="stop-color:#f97fb0"/>
    </linearGradient>
  </defs>
  <rect width="920" height="540" fill="#fff5f7"/>
  <rect width="920" height="50" fill="url(#hdr5)"/>
  <text x="460" y="32" text-anchor="middle" fill="white" font-size="17" font-weight="700">System Architecture – SafeHer Women Safety App</text>

  <!-- Layer bands -->
  <rect x="40" y="62" width="840" height="76" rx="10" fill="rgba(244,63,110,0.05)" stroke="rgba(244,63,110,0.2)" stroke-width="1"/>
  <rect x="40" y="158" width="840" height="76" rx="10" fill="rgba(212,150,126,0.05)" stroke="rgba(212,150,126,0.2)" stroke-width="1"/>
  <rect x="40" y="254" width="840" height="90" rx="10" fill="rgba(192,132,252,0.05)" stroke="rgba(192,132,252,0.2)" stroke-width="1"/>
  <rect x="40" y="364" width="840" height="80" rx="10" fill="rgba(110,231,183,0.06)" stroke="rgba(110,231,183,0.25)" stroke-width="1"/>
  <rect x="40" y="464" width="840" height="60" rx="10" fill="rgba(251,146,60,0.05)" stroke="rgba(251,146,60,0.2)" stroke-width="1"/>

  <!-- Layer titles -->
  <text x="60" y="80" fill="#f43f6e" font-size="11" font-weight="700">CLIENT LAYER</text>
  <text x="60" y="176" fill="#d4967e" font-size="11" font-weight="700">API GATEWAY + BACKEND SERVICES</text>
  <text x="60" y="272" fill="#c084fc" font-size="11" font-weight="700">DATA &amp; STORAGE LAYER</text>
  <text x="60" y="382" fill="#059669" font-size="11" font-weight="700">EXTERNAL SERVICES</text>
  <text x="60" y="482" fill="#fb923c" font-size="11" font-weight="700">INFRASTRUCTURE</text>

  <!-- Client Layer -->
  <rect x="110" y="84" width="130" height="42" rx="9" fill="white" stroke="#f43f6e" stroke-width="1.5"/>
  <text x="175" y="108" text-anchor="middle" fill="#3d1a2e" font-size="12">Flutter Mobile App</text>
  <rect x="270" y="84" width="130" height="42" rx="9" fill="white" stroke="#f43f6e" stroke-width="1.5"/>
  <text x="335" y="108" text-anchor="middle" fill="#3d1a2e" font-size="12">Web Prototype (HTML)</text>
  <rect x="430" y="84" width="130" height="42" rx="9" fill="white" stroke="#f43f6e" stroke-width="1.5"/>
  <text x="495" y="108" text-anchor="middle" fill="#3d1a2e" font-size="12">Admin Web Dashboard</text>
  <rect x="590" y="84" width="130" height="42" rx="9" fill="white" stroke="#f43f6e" stroke-width="1.5"/>
  <text x="655" y="108" text-anchor="middle" fill="#3d1a2e" font-size="12">Contact Track Page</text>

  <!-- API Layer -->
  <rect x="80" y="178" width="120" height="40" rx="9" fill="white" stroke="#d4967e" stroke-width="1.5"/>
  <text x="140" y="202" text-anchor="middle" fill="#3d1a2e" font-size="11">Auth Service (OTP)</text>
  <rect x="220" y="178" width="120" height="40" rx="9" fill="white" stroke="#d4967e" stroke-width="1.5"/>
  <text x="280" y="202" text-anchor="middle" fill="#3d1a2e" font-size="11">SOS Alert Engine</text>
  <rect x="360" y="178" width="120" height="40" rx="9" fill="white" stroke="#d4967e" stroke-width="1.5"/>
  <text x="420" y="202" text-anchor="middle" fill="#3d1a2e" font-size="11">Location Service</text>
  <rect x="500" y="178" width="120" height="40" rx="9" fill="white" stroke="#d4967e" stroke-width="1.5"/>
  <text x="560" y="202" text-anchor="middle" fill="#3d1a2e" font-size="11">Notification Service</text>
  <rect x="640" y="178" width="120" height="40" rx="9" fill="white" stroke="#d4967e" stroke-width="1.5"/>
  <text x="700" y="202" text-anchor="middle" fill="#3d1a2e" font-size="11">Evidence Storage</text>
  <rect x="780" y="178" width="80" height="40" rx="9" fill="white" stroke="#d4967e" stroke-width="1.5"/>
  <text x="820" y="202" text-anchor="middle" fill="#3d1a2e" font-size="11">Heatmap API</text>

  <!-- Data Layer -->
  <rect x="100" y="278" width="140" height="52" rx="9" fill="white" stroke="#c084fc" stroke-width="1.5"/>
  <text x="170" y="300" text-anchor="middle" fill="#c084fc" font-size="12" font-weight="700">Firebase Firestore</text>
  <text x="170" y="318" text-anchor="middle" fill="#b5708a" font-size="10">Real-time alerts &amp; users</text>
  <rect x="270" y="278" width="140" height="52" rx="9" fill="white" stroke="#c084fc" stroke-width="1.5"/>
  <text x="340" y="300" text-anchor="middle" fill="#c084fc" font-size="12" font-weight="700">PostgreSQL</text>
  <text x="340" y="318" text-anchor="middle" fill="#b5708a" font-size="10">Incident history, logs</text>
  <rect x="440" y="278" width="140" height="52" rx="9" fill="white" stroke="#c084fc" stroke-width="1.5"/>
  <text x="510" y="300" text-anchor="middle" fill="#c084fc" font-size="12" font-weight="700">Firebase Storage</text>
  <text x="510" y="318" text-anchor="middle" fill="#b5708a" font-size="10">Audio evidence, photos</text>
  <rect x="610" y="278" width="140" height="52" rx="9" fill="white" stroke="#c084fc" stroke-width="1.5"/>
  <text x="680" y="300" text-anchor="middle" fill="#c084fc" font-size="12" font-weight="700">Redis Cache</text>
  <text x="680" y="318" text-anchor="middle" fill="#b5708a" font-size="10">Live location stream</text>

  <!-- External Services -->
  <rect x="80" y="384" width="130" height="44" rx="9" fill="white" stroke="#6ee7b7" stroke-width="1.5"/>
  <text x="145" y="406" text-anchor="middle" fill="#065f46" font-size="11" font-weight="600">Twilio SMS API</text>
  <text x="145" y="420" text-anchor="middle" fill="#b5708a" font-size="10">Alert messages</text>
  <rect x="240" y="384" width="130" height="44" rx="9" fill="white" stroke="#6ee7b7" stroke-width="1.5"/>
  <text x="305" y="406" text-anchor="middle" fill="#065f46" font-size="11" font-weight="600">Firebase FCM</text>
  <text x="305" y="420" text-anchor="middle" fill="#b5708a" font-size="10">Push notifications</text>
  <rect x="400" y="384" width="130" height="44" rx="9" fill="white" stroke="#6ee7b7" stroke-width="1.5"/>
  <text x="465" y="406" text-anchor="middle" fill="#065f46" font-size="11" font-weight="600">Google Maps API</text>
  <text x="465" y="420" text-anchor="middle" fill="#b5708a" font-size="10">GPS + routing</text>
  <rect x="560" y="384" width="130" height="44" rx="9" fill="white" stroke="#6ee7b7" stroke-width="1.5"/>
  <text x="625" y="406" text-anchor="middle" fill="#065f46" font-size="11" font-weight="600">Police API</text>
  <text x="625" y="420" text-anchor="middle" fill="#b5708a" font-size="10">Emergency dispatch</text>
  <rect x="720" y="384" width="130" height="44" rx="9" fill="white" stroke="#6ee7b7" stroke-width="1.5"/>
  <text x="785" y="406" text-anchor="middle" fill="#065f46" font-size="11" font-weight="600">Phone OTP / Auth</text>
  <text x="785" y="420" text-anchor="middle" fill="#b5708a" font-size="10">Firebase Auth</text>

  <!-- Infra -->
  <rect x="80" y="480" width="120" height="36" rx="9" fill="white" stroke="#fb923c" stroke-width="1.5"/>
  <text x="140" y="502" text-anchor="middle" fill="#fb923c" font-size="11" font-weight="600">Google Cloud Run</text>
  <rect x="220" y="480" width="120" height="36" rx="9" fill="white" stroke="#fb923c" stroke-width="1.5"/>
  <text x="280" y="502" text-anchor="middle" fill="#fb923c" font-size="11" font-weight="600">GitHub CI/CD</text>
  <rect x="360" y="480" width="120" height="36" rx="9" fill="white" stroke="#fb923c" stroke-width="1.5"/>
  <text x="420" y="502" text-anchor="middle" fill="#fb923c" font-size="11" font-weight="600">SSL / HTTPS</text>
  <rect x="500" y="480" width="120" height="36" rx="9" fill="white" stroke="#fb923c" stroke-width="1.5"/>
  <text x="560" y="502" text-anchor="middle" fill="#fb923c" font-size="11" font-weight="600">Load Balancer</text>
  <rect x="640" y="480" width="160" height="36" rx="9" fill="white" stroke="#fb923c" stroke-width="1.5"/>
  <text x="720" y="502" text-anchor="middle" fill="#fb923c" font-size="11" font-weight="600">Monitoring / Logging</text>

  <!-- Vertical flow connectors -->
  <line x1="460" y1="126" x2="460" y2="158" stroke="#fda4af" stroke-width="1" stroke-dasharray="4"/>
  <line x1="460" y1="218" x2="460" y2="254" stroke="#fda4af" stroke-width="1" stroke-dasharray="4"/>
  <line x1="460" y1="344" x2="460" y2="364" stroke="#fda4af" stroke-width="1" stroke-dasharray="4"/>
  <line x1="460" y1="428" x2="460" y2="464" stroke="#fda4af" stroke-width="1" stroke-dasharray="4"/>
</svg>
